<svg width="25" height="24" viewBox="0 0 25 24" fill="none" xmlns="http://www.w3.org/2000/svg">
<path d="M19.0051 22.5C18.8472 22.5006 18.6932 22.4514 18.5649 22.3594L12.5364 17.9888L6.50776 22.3594C6.37897 22.4528 6.2238 22.5028 6.06469 22.5023C5.90558 22.5017 5.75078 22.4505 5.62267 22.3562C5.49455 22.2618 5.39976 22.1292 5.352 21.9774C5.30424 21.8256 5.30599 21.6626 5.35698 21.5119L7.70823 14.5477L1.61448 10.3688C1.48249 10.2783 1.38287 10.1481 1.33017 9.99702C1.27748 9.84595 1.27448 9.682 1.3216 9.5291C1.36873 9.3762 1.46351 9.24238 1.59211 9.14719C1.7207 9.052 1.87637 9.00043 2.03636 9.00001H9.55417L11.8229 2.01798C11.8718 1.86724 11.9672 1.73586 12.0953 1.64267C12.2235 1.54949 12.3779 1.4993 12.5364 1.4993C12.6948 1.4993 12.8492 1.54949 12.9774 1.64267C13.1056 1.73586 13.2009 1.86724 13.2498 2.01798L15.5185 9.00236H23.0363C23.1965 9.00228 23.3526 9.05349 23.4815 9.1485C23.6105 9.24351 23.7057 9.37731 23.7531 9.53033C23.8005 9.68334 23.7977 9.84751 23.7451 9.99881C23.6924 10.1501 23.5927 10.2806 23.4606 10.3711L17.3645 14.5477L19.7143 21.51C19.7524 21.6227 19.7631 21.7429 19.7456 21.8606C19.728 21.9782 19.6827 22.0901 19.6135 22.1868C19.5442 22.2835 19.4529 22.3624 19.3471 22.4168C19.2413 22.4713 19.1241 22.4998 19.0051 22.5Z" fill="#12805D"/>
</svg>
