<svg width="19" height="18" viewBox="0 0 19 18" fill="none" xmlns="http://www.w3.org/2000/svg">
<path d="M16.2007 5.95547C16.0963 5.85047 15.9722 5.76721 15.8355 5.71048C15.6987 5.65376 15.5521 5.62471 15.4041 5.625H13.1541V5.0625C13.1541 4.01821 12.7392 3.01669 12.0008 2.27827C11.2624 1.53984 10.2608 1.125 9.21655 1.125C8.17226 1.125 7.17074 1.53984 6.43232 2.27827C5.6939 3.01669 5.27905 4.01821 5.27905 5.0625V5.625H3.02905C2.73068 5.625 2.44454 5.74353 2.23356 5.9545C2.02258 6.16548 1.90405 6.45163 1.90405 6.75V14.3438C1.90405 15.7148 3.06421 16.875 4.4353 16.875H13.9978C14.661 16.8752 15.298 16.6159 15.7725 16.1525C16.0113 15.9247 16.2014 15.6509 16.3315 15.3476C16.4615 15.0442 16.5287 14.7177 16.5291 14.3877V6.75C16.5295 6.60244 16.5007 6.45626 16.4444 6.31989C16.388 6.18352 16.3052 6.05966 16.2007 5.95547ZM11.4666 11.8125H9.77905V13.5C9.77905 13.6492 9.71979 13.7923 9.6143 13.8977C9.50881 14.0032 9.36574 14.0625 9.21655 14.0625C9.06737 14.0625 8.92429 14.0032 8.81881 13.8977C8.71332 13.7923 8.65405 13.6492 8.65405 13.5V11.8125H6.96655C6.81737 11.8125 6.67429 11.7532 6.56881 11.6477C6.46332 11.5423 6.40405 11.3992 6.40405 11.25C6.40405 11.1008 6.46332 10.9577 6.56881 10.8523C6.67429 10.7468 6.81737 10.6875 6.96655 10.6875H8.65405V9C8.65405 8.85082 8.71332 8.70774 8.81881 8.60225C8.92429 8.49676 9.06737 8.4375 9.21655 8.4375C9.36574 8.4375 9.50881 8.49676 9.6143 8.60225C9.71979 8.70774 9.77905 8.85082 9.77905 9V10.6875H11.4666C11.6157 10.6875 11.7588 10.7468 11.8643 10.8523C11.9698 10.9577 12.0291 11.1008 12.0291 11.25C12.0291 11.3992 11.9698 11.5423 11.8643 11.6477C11.7588 11.7532 11.6157 11.8125 11.4666 11.8125ZM12.0291 5.625H6.40405V5.0625C6.40405 4.31658 6.70037 3.60121 7.22781 3.07376C7.75526 2.54632 8.47063 2.25 9.21655 2.25C9.96247 2.25 10.6778 2.54632 11.2053 3.07376C11.7327 3.60121 12.0291 4.31658 12.0291 5.0625V5.625Z" fill="white"/>
</svg>
