<svg width="19" height="18" viewBox="0 0 19 18" fill="none" xmlns="http://www.w3.org/2000/svg">
<path d="M16.8424 5.95547C16.7381 5.85047 16.6139 5.76721 16.4772 5.71048C16.3405 5.65376 16.1938 5.62471 16.0458 5.625H13.7958V5.0625C13.7958 4.01821 13.3809 3.01669 12.6425 2.27827C11.9041 1.53984 10.9026 1.125 9.85829 1.125C8.814 1.125 7.81248 1.53984 7.07406 2.27827C6.33563 3.01669 5.92079 4.01821 5.92079 5.0625V5.625H3.67079C3.37242 5.625 3.08627 5.74353 2.8753 5.9545C2.66432 6.16548 2.54579 6.45163 2.54579 6.75V14.3438C2.54579 15.7148 3.70595 16.875 5.07704 16.875H14.6395C15.3028 16.8752 15.9397 16.6159 16.4142 16.1525C16.653 15.9247 16.8432 15.6509 16.9732 15.3476C17.1032 15.0442 17.1704 14.7177 17.1708 14.3877V6.75C17.1712 6.60244 17.1425 6.45626 17.0861 6.31989C17.0297 6.18352 16.9469 6.05966 16.8424 5.95547ZM12.1083 11.8125H10.4208V13.5C10.4208 13.6492 10.3615 13.7923 10.256 13.8977C10.1506 14.0032 10.0075 14.0625 9.85829 14.0625C9.70911 14.0625 9.56603 14.0032 9.46054 13.8977C9.35505 13.7923 9.29579 13.6492 9.29579 13.5V11.8125H7.60829C7.45911 11.8125 7.31603 11.7532 7.21054 11.6477C7.10505 11.5423 7.04579 11.3992 7.04579 11.25C7.04579 11.1008 7.10505 10.9577 7.21054 10.8523C7.31603 10.7468 7.45911 10.6875 7.60829 10.6875H9.29579V9C9.29579 8.85082 9.35505 8.70774 9.46054 8.60225C9.56603 8.49676 9.70911 8.4375 9.85829 8.4375C10.0075 8.4375 10.1506 8.49676 10.256 8.60225C10.3615 8.70774 10.4208 8.85082 10.4208 9V10.6875H12.1083C12.2575 10.6875 12.4006 10.7468 12.506 10.8523C12.6115 10.9577 12.6708 11.1008 12.6708 11.25C12.6708 11.3992 12.6115 11.5423 12.506 11.6477C12.4006 11.7532 12.2575 11.8125 12.1083 11.8125ZM12.6708 5.625H7.04579V5.0625C7.04579 4.31658 7.34211 3.60121 7.86955 3.07376C8.397 2.54632 9.11237 2.25 9.85829 2.25C10.6042 2.25 11.3196 2.54632 11.847 3.07376C12.3745 3.60121 12.6708 4.31658 12.6708 5.0625V5.625Z" fill="white"/>
</svg>
