<svg width="19" height="18" viewBox="0 0 19 18" fill="none" xmlns="http://www.w3.org/2000/svg">
<path d="M16.4842 5.95547C16.3798 5.85047 16.2557 5.76721 16.1189 5.71048C15.9822 5.65376 15.8356 5.62471 15.6875 5.625H13.4375V5.0625C13.4375 4.01821 13.0227 3.01669 12.2842 2.27827C11.5458 1.53984 10.5443 1.125 9.50002 1.125C8.45573 1.125 7.45421 1.53984 6.71578 2.27827C5.97736 3.01669 5.56252 4.01821 5.56252 5.0625V5.625H3.31252C3.01415 5.625 2.728 5.74353 2.51702 5.9545C2.30604 6.16548 2.18752 6.45163 2.18752 6.75V14.3438C2.18752 15.7148 3.34767 16.875 4.71877 16.875H14.2813C14.9445 16.8752 15.5815 16.6159 16.056 16.1525C16.2947 15.9247 16.4849 15.6509 16.6149 15.3476C16.745 15.0442 16.8122 14.7177 16.8125 14.3877V6.75C16.813 6.60244 16.7842 6.45626 16.7278 6.31989C16.6715 6.18352 16.5886 6.05966 16.4842 5.95547ZM11.75 11.8125H10.0625V13.5C10.0625 13.6492 10.0033 13.7923 9.89776 13.8977C9.79227 14.0032 9.6492 14.0625 9.50002 14.0625C9.35083 14.0625 9.20776 14.0032 9.10227 13.8977C8.99678 13.7923 8.93752 13.6492 8.93752 13.5V11.8125H7.25002C7.10083 11.8125 6.95776 11.7532 6.85227 11.6477C6.74678 11.5423 6.68752 11.3992 6.68752 11.25C6.68752 11.1008 6.74678 10.9577 6.85227 10.8523C6.95776 10.7468 7.10083 10.6875 7.25002 10.6875H8.93752V9C8.93752 8.85082 8.99678 8.70774 9.10227 8.60225C9.20776 8.49676 9.35083 8.4375 9.50002 8.4375C9.6492 8.4375 9.79227 8.49676 9.89776 8.60225C10.0033 8.70774 10.0625 8.85082 10.0625 9V10.6875H11.75C11.8992 10.6875 12.0423 10.7468 12.1478 10.8523C12.2533 10.9577 12.3125 11.1008 12.3125 11.25C12.3125 11.3992 12.2533 11.5423 12.1478 11.6477C12.0423 11.7532 11.8992 11.8125 11.75 11.8125ZM12.3125 5.625H6.68752V5.0625C6.68752 4.31658 6.98383 3.60121 7.51128 3.07376C8.03872 2.54632 8.75409 2.25 9.50002 2.25C10.2459 2.25 10.9613 2.54632 11.4888 3.07376C12.0162 3.60121 12.3125 4.31658 12.3125 5.0625V5.625Z" fill="white"/>
</svg>
