<svg width="25" height="24" viewBox="0 0 25 24" fill="none" xmlns="http://www.w3.org/2000/svg">
<path d="M19.0053 22.5C18.8475 22.5006 18.6935 22.4514 18.5652 22.3594L12.5366 17.9888L6.50801 22.3594C6.37921 22.4528 6.22404 22.5028 6.06493 22.5023C5.90583 22.5017 5.75103 22.4505 5.62291 22.3562C5.4948 22.2618 5.40001 22.1292 5.35225 21.9774C5.30449 21.8256 5.30623 21.6626 5.35723 21.5119L7.70848 14.5477L1.61473 10.3688C1.48273 10.2783 1.38311 10.1481 1.33042 9.99702C1.27772 9.84595 1.27472 9.682 1.32185 9.5291C1.36897 9.3762 1.46376 9.24238 1.59235 9.14719C1.72095 9.052 1.87661 9.00043 2.0366 9.00001H9.55441L11.8232 2.01798C11.872 1.86724 11.9674 1.73586 12.0956 1.64267C12.2237 1.54949 12.3781 1.4993 12.5366 1.4993C12.6951 1.4993 12.8495 1.54949 12.9776 1.64267C13.1058 1.73586 13.2012 1.86724 13.25 2.01798L15.5188 9.00236H23.0366C23.1968 9.00228 23.3528 9.05349 23.4818 9.1485C23.6108 9.24351 23.7059 9.37731 23.7533 9.53033C23.8008 9.68334 23.798 9.84751 23.7453 9.99881C23.6927 10.1501 23.593 10.2806 23.4608 10.3711L17.3647 14.5477L19.7146 21.51C19.7526 21.6227 19.7633 21.7429 19.7458 21.8606C19.7283 21.9782 19.683 22.0901 19.6137 22.1868C19.5444 22.2835 19.4531 22.3624 19.3473 22.4168C19.2415 22.4713 19.1243 22.4998 19.0053 22.5Z" fill="#12805D"/>
</svg>
